<?xml version="1.0" standalone="no"?>
<!DOCTYPE svg PUBLIC "-//W3C//DTD SVG 20010904//EN"
 "http://www.w3.org/TR/2001/REC-SVG-20010904/DTD/svg10.dtd">
<svg version="1.0" xmlns="http://www.w3.org/2000/svg"
 width="800.000000pt" height="625.000000pt" viewBox="0 0 800.000000 625.000000"
 preserveAspectRatio="xMidYMid meet">
<metadata>
Created by potrace 1.16, written by Peter Selinger 2001-2019
</metadata>
<g transform="translate(0.000000,625.000000) scale(0.100000,-0.100000)"
fill="#000000" stroke="none">
<path d="M4770 5945 c-16 -19 3 -45 28 -38 23 6 58 -33 77 -86 11 -33 15 -80
13 -190 l-2 -146 -6 160 c-3 88 -11 171 -17 185 -6 14 -24 36 -39 50 l-29 25
26 -30 c40 -46 43 -59 49 -230 l5 -160 25 0 c38 0 53 -44 58 -162 4 -98 3
-105 -27 -165 -17 -35 -36 -71 -43 -80 -16 -22 8 -173 46 -292 14 -43 21 -75
16 -70 -15 15 -59 180 -72 269 -11 75 -10 86 4 102 29 32 68 127 68 167 0 47
-9 44 -11 -5 -2 -18 -7 -40 -12 -46 -5 -7 -7 -13 -3 -13 9 0 -32 -80 -52 -103
-14 -16 -14 -28 -4 -102 21 -146 91 -349 134 -390 8 -7 8 -6 3 4 -5 9 -4 12 4
7 12 -8 42 -61 40 -72 0 -4 6 -11 15 -16 9 -5 14 -13 11 -18 -9 -15 12 -21 24
-7 7 10 8 38 1 98 -12 106 -13 186 -1 193 8 5 5 65 -4 74 -8 8 -16 -157 -11
-230 l5 -83 -10 75 c-13 92 -3 234 17 251 11 9 14 7 14 -16 0 -14 26 -106 59
-203 62 -188 85 -297 80 -378 -3 -41 -1 -50 12 -50 10 0 15 6 12 13 -3 7 4 32
14 56 11 23 39 88 63 144 24 56 47 100 51 97 5 -3 6 3 2 12 -5 13 -3 15 7 9 8
-5 11 -4 7 2 -7 12 30 115 45 124 5 3 9 9 9 13 -1 3 -1 7 0 9 0 1 2 9 4 17 1
8 13 49 26 90 16 52 23 100 24 157 0 46 3 83 8 83 14 0 6 -135 -13 -205 -22
-84 -18 -100 5 -21 21 73 35 206 23 229 -5 9 -5 17 -1 17 10 0 58 -125 77
-203 61 -241 39 -525 -61 -771 l-38 -93 -142 -122 c-79 -67 -143 -119 -143
-116 0 2 60 56 134 120 74 63 138 120 142 126 14 23 -225 -188 -320 -283 -97
-97 -157 -138 -81 -55 l40 42 -42 -39 c-23 -21 -41 -42 -40 -45 1 -4 -70 -78
-158 -166 -88 -87 -133 -128 -101 -91 33 37 103 108 155 158 96 90 96 90 12
17 -87 -77 -222 -219 -218 -231 1 -3 -8 -17 -21 -30 -12 -14 -19 -28 -15 -31
3 -4 1 -7 -5 -7 -7 0 -12 -6 -12 -14 0 -8 -5 -16 -12 -18 -8 -3 -7 -6 4 -10
10 -4 42 21 99 80 46 47 75 79 65 71 -17 -12 -19 -12 -14 1 3 8 14 15 26 15
12 0 32 12 45 25 l22 24 -27 -24 c-16 -13 -28 -18 -28 -12 0 17 207 174 353
266 102 65 60 31 -70 -58 -71 -47 -150 -106 -178 -132 -48 -44 -48 -44 15 6
36 29 122 91 193 137 70 46 127 87 127 89 0 3 -5 2 -12 -2 -7 -4 -8 -3 -4 4 4
6 13 9 21 6 8 -4 18 1 21 10 8 20 140 89 154 81 5 -3 12 0 16 6 5 8 3 9 -7 4
-9 -5 -11 -5 -4 2 6 5 60 38 120 73 61 34 112 67 113 71 2 5 8 9 13 9 22 0 -6
-21 -101 -76 -54 -32 -98 -60 -96 -62 5 -5 169 93 261 156 151 104 211 151
243 191 18 23 36 40 40 39 8 -3 151 140 145 145 -1 2 8 14 22 27 24 22 26 23
42 7 12 -12 13 -17 5 -17 -7 0 -10 -4 -7 -10 3 -5 1 -10 -6 -10 -7 0 -9 -3 -6
-7 4 -3 -1 -12 -11 -20 -11 -9 -12 -12 -2 -8 8 4 3 -3 -11 -16 -15 -13 -41
-46 -59 -74 -18 -27 -58 -76 -88 -107 -48 -50 -54 -59 -42 -73 15 -17 41 -15
95 10 17 8 66 30 110 49 44 20 74 36 67 36 -7 0 -31 -9 -53 -21 -23 -11 -43
-19 -45 -16 -6 5 93 50 111 50 8 0 15 4 15 9 0 5 5 6 10 3 6 -3 10 -1 10 5 0
6 4 9 9 6 5 -3 12 1 15 10 5 13 9 14 21 4 13 -11 14 -10 8 6 -6 17 -5 17 10 5
16 -12 17 -12 10 5 -6 16 -5 17 9 6 13 -10 18 -10 24 -1 4 8 3 9 -4 5 -7 -4
-12 -2 -12 5 0 6 8 9 20 6 13 -3 18 -1 13 6 -4 6 0 8 10 4 9 -3 19 -1 23 5 4
7 3 8 -4 4 -7 -4 -12 -2 -12 5 0 6 8 9 20 6 11 -3 25 2 32 12 12 14 11 15 -4
2 -10 -7 -18 -9 -18 -3 0 12 45 42 64 42 14 0 34 -75 23 -86 -2 -3 -7 13 -11
36 -6 40 -18 51 -32 28 -4 -6 -3 -8 3 -5 15 9 23 -16 30 -89 8 -87 -19 -211
-70 -316 -23 -47 -39 -84 -34 -82 4 3 7 1 7 -4 0 -6 8 -13 17 -16 10 -4 14 -4
10 0 -8 9 51 74 67 74 5 0 -3 -15 -20 -32 l-29 -33 32 29 c18 16 31 32 30 36
-1 3 41 49 93 101 86 86 184 221 206 284 4 11 -16 -18 -45 -64 -60 -99 -117
-174 -162 -216 -18 -16 -11 -5 16 25 55 63 148 202 170 254 9 20 21 35 27 33
7 -1 13 7 15 18 l3 20 -9 -20 c-15 -31 -12 -8 4 43 8 26 19 75 23 108 7 53 6
61 -6 56 -11 -4 -13 -1 -7 8 5 9 4 11 -3 6 -6 -4 -21 -28 -32 -54 -12 -26 -35
-65 -52 -87 -29 -36 -29 -38 -5 -16 15 14 41 52 57 85 17 32 30 53 30 45 0
-42 -108 -179 -142 -179 -12 0 -10 9 26 133 82 286 74 555 -23 789 -17 40 -24
65 -16 54 8 -10 28 -56 45 -103 78 -218 80 -466 4 -741 -13 -47 -22 -88 -20
-90 5 -5 32 89 59 203 31 130 30 414 -1 527 -27 97 -78 222 -104 251 -11 12
-16 16 -12 8 4 -9 3 -12 -4 -7 -6 4 -9 13 -6 20 3 7 -3 22 -13 32 -10 11 -14
13 -9 4 5 -8 -14 10 -42 40 -28 30 -52 60 -52 65 0 6 -9 16 -20 23 -11 7 -20
17 -20 24 0 7 6 6 18 -3 10 -8 0 3 -23 24 -65 62 -174 136 -267 183 -49 24
-88 42 -88 39 0 -3 37 -23 83 -46 94 -48 213 -127 248 -166 20 -23 18 -23 -13
4 -88 75 -331 214 -346 198 -4 -3 -1 -16 6 -28 12 -20 11 -20 -8 2 -11 13 -20
19 -20 13 0 -6 15 -27 34 -46 18 -20 31 -38 28 -41 -3 -3 0 -5 7 -5 7 0 9 -4
6 -10 -3 -5 -1 -10 5 -10 6 0 8 -4 5 -10 -3 -5 -1 -10 5 -10 6 0 8 -4 5 -10
-3 -5 -1 -10 5 -10 8 0 8 -6 0 -20 -9 -16 -8 -18 5 -14 9 4 15 3 14 -2 -2 -5
5 -45 15 -88 28 -122 23 -408 -6 -390 -7 4 -8 2 -4 -5 9 -14 -2 -71 -14 -71
-5 0 -15 14 -24 31 -13 26 -13 29 -1 19 8 -7 15 -20 15 -29 0 -13 2 -14 9 -2
7 11 1 21 -22 38 -17 13 -27 23 -22 23 5 0 0 7 -11 16 -10 8 -12 12 -4 8 8 -4
-6 12 -32 35 -27 24 -48 48 -48 54 0 6 19 -7 43 -28 38 -36 38 -36 -5 10 -42
43 -50 48 -62 35 -13 -13 -12 -24 9 -85 30 -87 32 -175 5 -279 -24 -96 -94
-231 -162 -316 -29 -36 -44 -59 -35 -51 64 51 166 228 203 351 13 41 23 68 23
59 2 -32 -32 -127 -75 -209 -47 -91 -169 -260 -194 -268 -9 -3 -5 6 10 24 l25
29 -26 -23 c-15 -13 -25 -31 -22 -40 6 -24 -203 -230 -218 -215 -8 8 -3 29 19
79 34 79 72 197 72 226 0 10 4 17 8 14 5 -3 6 9 4 26 -3 19 -1 28 5 25 6 -4
10 77 10 228 0 148 -4 232 -10 228 -6 -3 -8 10 -5 35 2 22 1 39 -2 37 -3 -2
-14 33 -24 77 -44 196 -139 388 -255 513 l-46 50 44 -40 c55 -50 148 -190 186
-278 15 -37 30 -65 32 -63 8 8 -64 152 -107 217 -55 82 -139 169 -156 162 -8
-3 -15 0 -15 6 -3 25 -4 30 -10 36 -4 3 -6 -11 -5 -32 1 -24 6 -37 14 -35 16
3 43 -59 49 -110 3 -29 0 -38 -11 -38 -8 0 -18 5 -22 12 -4 6 -3 8 4 4 6 -4
10 1 9 13 -1 14 -5 17 -13 11 -7 -7 -17 -2 -30 13 l-19 22 24 -20 c14 -11 22
-15 19 -10 -4 6 -40 37 -82 70 -41 33 -75 64 -76 68 0 5 5 5 12 1 6 -4 8 -3 5
4 -4 5 -16 8 -27 5 -12 -3 -20 0 -20 6 0 7 5 9 12 5 7 -4 8 -3 4 4 -4 6 -14 8
-23 5 -10 -4 -14 -2 -10 4 5 7 0 9 -13 6 -12 -3 -20 0 -20 6 0 7 -5 9 -12 5
-8 -5 -9 -2 -4 11 5 15 4 16 -9 5 -11 -9 -15 -9 -15 -1 0 7 -4 9 -10 6 -5 -3
-10 -1 -10 5 0 6 -4 8 -10 5 -5 -3 -10 -1 -10 4 0 6 -3 10 -7 10 -5 -1 -11 0
-15 1 -5 1 -11 3 -15 4 -30 7 -143 49 -140 52 2 2 30 -5 62 -16 32 -11 60 -18
62 -16 6 6 -174 66 -247 81 -87 18 -85 18 -100 0z"/>
<path d="M3770 5831 c0 -5 -11 -6 -25 -3 -14 2 -25 0 -25 -6 0 -6 -9 -8 -20
-5 -11 3 -20 0 -20 -6 0 -7 -8 -8 -25 -1 -20 8 -23 6 -18 -7 5 -13 3 -14 -15
-4 -18 10 -21 9 -15 -5 5 -14 3 -15 -17 -4 -18 10 -21 9 -15 -1 6 -9 3 -11 -9
-6 -11 5 -15 3 -10 -5 5 -7 0 -9 -14 -6 -14 4 -20 2 -15 -5 4 -7 0 -8 -11 -4
-9 4 -15 3 -12 -1 3 -5 -11 -16 -30 -25 -41 -20 -48 -21 -38 -5 4 7 3 8 -5 4
-6 -4 -9 -11 -6 -16 3 -4 -23 -24 -57 -43 -70 -39 -190 -127 -251 -184 -22
-20 -38 -32 -36 -26 9 24 193 167 282 218 26 15 47 29 47 32 0 9 -92 -48 -165
-101 -89 -65 -228 -187 -221 -193 10 -10 -55 -83 -67 -76 -7 3 -9 3 -5 -1 4
-4 -9 -21 -28 -38 -32 -28 -48 -58 -22 -42 7 4 8 3 4 -5 -4 -6 -11 -9 -16 -6
-18 11 -155 -236 -174 -315 l-6 -25 11 25 c60 130 123 250 144 275 25 28 24
27 -3 -15 -72 -110 -142 -278 -162 -390 -15 -85 2 -97 46 -32 18 26 54 67 80
92 l49 45 -51 -55 c-28 -30 -61 -71 -73 -90 l-22 -35 23 29 c49 63 103 118
150 152 26 20 48 42 48 49 0 13 36 31 53 27 4 -1 7 3 7 9 0 5 5 7 10 4 6 -3
10 -1 10 5 0 6 5 8 10 5 6 -3 10 -1 10 5 0 6 5 8 10 5 6 -3 10 -1 10 5 0 8 6
8 20 0 17 -9 19 -8 13 7 -6 16 -5 17 12 3 10 -8 16 -10 12 -4 -7 12 49 42 58
32 3 -3 -6 -31 -20 -62 -54 -122 -70 -200 -69 -346 1 -107 6 -149 22 -204 12
-38 20 -71 18 -74 -6 -5 -36 103 -47 167 -13 79 -11 173 6 266 16 90 13 114
-5 33 -29 -135 -23 -295 17 -417 22 -66 43 -73 83 -28 25 28 30 30 52 20 31
-14 54 -2 43 23 -7 17 -9 16 -15 -6 -9 -30 -12 -5 -4 28 9 32 21 27 28 -13 7
-34 19 -44 30 -26 4 5 45 35 93 67 47 32 114 86 147 119 l61 61 17 101 c10 55
30 141 46 191 l29 91 -96 -4 c-53 -2 -100 -4 -104 -4 -4 -1 -26 -20 -49 -43
-23 -23 -43 -37 -45 -31 -6 16 25 61 46 68 10 3 25 21 34 40 l17 35 120 0 c78
0 119 4 115 10 -3 6 -1 10 5 10 6 0 8 5 5 10 -3 6 -1 10 4 10 6 0 10 3 9 8 -1
4 21 32 48 61 66 73 186 193 178 178 -3 -7 4 -1 16 13 12 14 19 18 15 10 -5
-12 -4 -12 7 1 7 9 23 15 35 14 12 -1 20 2 17 7 -4 5 3 12 15 15 12 3 21 10
21 15 0 5 6 6 13 2 7 -5 6 0 -3 10 -13 16 -27 18 -115 14 -55 -3 -109 -10
-120 -17 -20 -12 -20 -12 0 -6 11 4 67 9 125 10 l105 3 -105 -8 c-58 -4 -118
-13 -134 -19 -20 -8 -32 -8 -41 -1 -8 7 -15 7 -19 1 -3 -5 0 -12 6 -14 8 -3 6
-6 -4 -6 -10 -1 -18 3 -18 7 0 10 50 57 106 100 42 32 194 117 194 109 0 -3
-34 -23 -75 -45 -70 -38 -185 -118 -185 -129 0 -3 15 6 33 19 106 82 233 149
326 173 34 8 95 17 136 18 74 3 104 15 91 36 -4 5 -14 7 -23 4 -11 -4 -14 -3
-9 5 5 8 1 10 -10 5 -12 -4 -15 -3 -10 5 5 8 1 10 -10 5 -11 -4 -15 -3 -11 4
5 7 -1 9 -15 5 -13 -3 -19 -1 -15 5 5 7 -1 9 -15 5 -14 -3 -19 -1 -14 6 5 8 1
10 -10 5 -13 -5 -15 -3 -9 7 5 9 4 11 -3 6 -6 -4 -39 0 -72 9 -33 9 -65 13
-70 10 -5 -3 -11 -1 -15 4 -7 12 -365 14 -365 2z"/>
<path d="M4293 5637 c-10 -10 -17 -28 -15 -38 2 -10 -2 -19 -8 -19 -6 0 -8 5
-4 12 4 7 3 8 -4 4 -6 -4 -8 -14 -5 -23 5 -12 3 -14 -8 -8 -12 8 -12 6 0 -8
11 -14 11 -18 -3 -23 -9 -3 -13 -10 -10 -15 3 -5 0 -9 -6 -9 -7 0 -9 -7 -6
-16 3 -8 -1 -28 -9 -45 -9 -16 -11 -29 -5 -29 5 0 10 7 10 15 0 8 5 15 10 15
6 0 10 6 10 13 0 16 62 47 95 47 41 0 74 -18 94 -52 11 -18 25 -38 30 -45 6
-7 11 -17 11 -23 0 -6 7 -25 16 -42 14 -27 19 -29 47 -24 23 4 28 3 17 -4 -25
-16 -48 -11 -69 16 -12 15 -21 22 -21 17 0 -17 45 -53 66 -53 11 0 25 5 31 11
12 12 6 49 -9 49 -5 0 -7 4 -4 9 3 5 0 11 -8 14 -9 4 -12 14 -9 25 5 21 -45
127 -84 179 -49 65 -117 87 -150 50z"/>
<path d="M1419 5463 c-10 -11 -10 -14 -1 -9 7 4 12 2 12 -4 0 -6 5 -8 10 -5 6
3 10 1 10 -4 0 -6 4 -10 9 -8 10 2 60 -58 99 -118 14 -22 40 -80 58 -130 18
-49 33 -85 34 -78 0 19 -51 155 -73 193 -11 19 -36 55 -56 80 -19 25 -25 36
-13 26 42 -37 96 -131 129 -226 18 -52 32 -104 32 -115 -1 -17 -2 -16 -10 5
-7 21 -8 19 -3 -10 2 -19 7 -54 11 -78 3 -23 9 -45 13 -47 4 -2 3 18 -2 46 -5
28 -7 53 -5 56 4 4 12 -35 33 -172 3 -22 5 -88 5 -147 0 -60 4 -108 8 -108 5
0 7 -18 4 -40 -3 -22 -3 -40 1 -40 4 0 34 19 66 42 41 29 63 52 71 75 12 38
21 41 48 14 11 -11 21 -17 24 -15 2 3 25 -21 52 -53 26 -32 53 -62 61 -66 20
-11 34 30 23 68 -16 53 -12 65 21 65 20 0 33 -7 41 -21 8 -16 14 -18 22 -10 8
8 8 22 0 54 -7 23 -8 46 -3 51 13 13 58 10 75 -4 18 -15 21 -120 3 -138 -9 -9
-9 -15 -1 -23 16 -16 5 -46 -24 -65 -21 -13 -27 -14 -34 -3 -7 12 -9 12 -9 0
0 -8 -11 -28 -24 -46 -24 -31 -24 -34 -10 -75 8 -23 21 -55 30 -71 8 -16 12
-34 9 -39 -3 -6 -1 -10 5 -10 6 0 8 -4 5 -10 -3 -5 -1 -10 5 -10 6 0 8 -4 5
-10 -3 -5 -1 -10 5 -10 6 0 9 -4 6 -8 -3 -5 4 -37 15 -73 11 -35 34 -113 50
-173 38 -139 106 -307 164 -407 48 -84 52 -94 33 -83 -8 4 -10 3 -5 -2 5 -5
14 -9 19 -9 6 0 13 -6 16 -14 3 -9 0 -11 -9 -6 -8 5 -11 4 -6 -1 5 -5 14 -9
19 -9 6 0 13 -6 16 -14 3 -9 0 -11 -8 -6 -9 5 -11 4 -6 -4 4 -6 11 -9 16 -6 5
3 23 -15 41 -40 18 -25 36 -45 40 -45 13 0 16 75 3 111 -36 105 -47 367 -18
455 25 73 50 97 97 91 39 -5 87 -40 87 -63 0 -7 4 -14 8 -16 18 -7 72 -161
106 -303 41 -169 75 -284 89 -302 5 -7 6 -17 3 -22 -4 -5 -2 -12 4 -16 6 -4 8
-11 5 -16 -4 -5 -2 -9 3 -9 18 0 21 161 5 224 -8 33 -15 76 -16 95 0 20 -4 41
-9 48 -6 7 -7 17 -3 23 3 5 3 16 -2 23 -4 6 -8 21 -8 32 -1 53 -18 175 -25
175 -5 0 -6 18 -3 40 4 24 2 40 -5 40 -5 0 -8 9 -5 20 8 31 -16 200 -43 301
-13 49 -40 124 -59 166 -39 84 -40 87 -24 77 8 -4 8 0 0 15 -13 24 -23 28 -15
6 12 -31 -6 -13 -45 46 -46 68 -49 93 -5 32 40 -54 50 -63 28 -25 -10 18 -31
45 -47 59 -25 24 -29 25 -43 12 -14 -14 -14 -23 0 -85 13 -55 15 -59 10 -19
-11 83 -10 98 6 102 12 4 12 3 2 -5 -11 -7 -11 -17 -2 -48 16 -55 26 -344 12
-344 -7 0 -14 10 -16 23 -27 142 -41 203 -62 266 -14 40 -23 75 -21 77 2 2 15
-28 28 -66 13 -39 25 -67 27 -62 5 16 -45 137 -56 137 -13 0 -93 160 -85 169
4 3 1 6 -6 6 -7 0 -10 4 -6 9 3 5 -2 16 -10 24 -8 9 -15 20 -15 26 0 5 -6 16
-13 23 -7 7 -28 36 -47 63 -48 72 -136 183 -188 237 -28 29 -42 51 -37 59 5 7
4 10 -1 6 -6 -3 -27 9 -47 28 -20 19 -37 31 -37 28 0 -4 -6 2 -14 12 -8 11
-12 24 -8 30 3 5 -2 4 -11 -4 -9 -7 -17 -19 -17 -25 0 -7 3 -6 8 2 10 15 62
-74 62 -107 0 -41 -42 -21 -122 57 -32 31 -58 61 -58 66 0 6 28 -16 63 -49
l62 -60 -59 61 c-42 44 -63 60 -77 57 -11 -3 -19 0 -19 6 0 7 5 9 12 5 6 -4 8
-3 5 4 -4 5 -16 8 -27 5 -12 -3 -20 0 -20 6 0 7 5 9 12 5 7 -4 8 -3 4 4 -4 6
-14 8 -23 5 -12 -5 -14 -3 -8 8 8 12 6 12 -8 0 -12 -9 -17 -10 -17 -2 0 7 -4
9 -10 6 -5 -3 -10 -1 -10 5 0 6 -4 8 -10 5 -5 -3 -10 -1 -10 5 0 7 -7 10 -15
6 -8 -3 -15 -1 -15 4 0 6 -3 9 -7 8 -5 -1 -42 6 -83 16 -41 9 -113 21 -160 26
l-85 9 95 -3 c69 -3 84 -1 55 5 -71 14 -141 11 -156 -8z"/>
<path d="M4815 5428 l-40 -43 42 40 c35 31 45 37 55 26 11 -10 10 -11 -2 -6
-10 3 -33 -13 -64 -44 -27 -28 -53 -48 -58 -45 -14 9 -9 -3 8 -16 12 -11 15
-11 12 0 -2 10 7 13 37 11 57 -3 75 -28 75 -102 0 -46 3 -59 15 -59 9 0 15 9
15 25 0 14 5 25 11 25 8 0 9 22 5 73 -9 106 -10 115 -19 123 -4 5 -5 0 -1 -11
3 -11 -3 -5 -15 13 -11 17 -24 32 -29 32 -4 0 -26 -19 -47 -42z"/>
<path d="M4754 4830 c-12 -5 -25 -14 -30 -21 -4 -7 -3 -10 3 -6 6 4 14 0 17
-8 4 -11 0 -15 -11 -13 -9 2 -18 -4 -20 -12 -4 -13 -3 -13 6 0 9 13 11 13 11
-2 0 -10 5 -18 10 -18 6 0 10 4 10 9 0 5 8 7 18 4 19 -4 60 32 49 44 -4 3 -24
6 -44 5 -32 0 -35 1 -15 8 23 10 72 -3 72 -18 0 -18 -46 -51 -75 -54 -38 -4
-57 -30 -52 -71 4 -32 4 -32 5 5 2 38 17 57 32 42 15 -16 38 -178 28 -191 -7
-9 -5 -21 6 -38 25 -37 20 -48 -18 -43 l-34 4 14 -28 c20 -39 18 -45 -17 -50
-22 -3 -50 4 -89 23 -55 27 -83 49 -61 49 5 0 13 -5 16 -10 4 -6 29 -21 56
-34 27 -14 47 -20 44 -15 -3 4 -25 17 -48 28 -23 11 -53 28 -67 38 -13 10 -21
12 -16 6 4 -7 4 -13 0 -13 -11 0 -33 34 -34 51 0 9 -7 20 -16 23 -24 9 -31 7
-14 -5 12 -8 10 -9 -9 -7 -13 2 -26 -2 -28 -8 -4 -12 129 -124 178 -149 45
-24 34 -10 -16 19 -25 15 -45 29 -45 32 0 2 25 -10 55 -27 30 -17 55 -28 55
-24 0 4 7 2 15 -5 23 -19 86 -3 129 34 l39 32 -33 57 c-19 31 -36 55 -38 53
-2 -2 11 -27 29 -56 l32 -53 -34 -28 c-31 -25 -103 -48 -115 -36 -3 2 14 8 38
11 24 4 56 18 72 31 l29 23 -32 52 c-18 29 -30 57 -28 64 4 11 -18 153 -29
189 -4 12 0 17 13 17 11 0 32 14 48 30 25 26 27 32 15 44 -21 20 -51 26 -76
16z"/>
<path d="M596 4551 c-3 -5 -14 -7 -24 -4 -21 5 -182 -44 -182 -56 0 -4 27 -11
61 -15 33 -3 68 -10 77 -16 13 -8 11 -9 -11 -4 -15 3 -50 9 -79 13 -61 7 -72
26 -26 46 18 8 26 14 17 15 -9 0 -27 -8 -40 -19 -20 -16 -21 -21 -10 -35 7 -9
28 -16 45 -16 32 0 87 -12 120 -26 15 -5 17 -4 11 6 -5 9 -4 11 4 6 6 -4 9
-11 6 -16 -3 -5 4 -14 15 -20 31 -16 86 -106 115 -185 15 -39 38 -140 53 -225
23 -129 30 -154 45 -156 10 -1 27 6 38 17 32 32 42 21 18 -18 -13 -21 -27 -41
-32 -44 -5 -4 -4 -30 3 -63 l12 -57 26 17 c15 10 67 41 116 70 72 41 94 59
114 95 13 24 33 53 43 65 10 11 19 27 19 35 0 12 2 12 9 -1 6 -8 8 -17 5 -21
-2 -4 2 -6 8 -4 44 11 58 20 67 46 6 16 7 27 2 25 -9 -6 -31 37 -31 59 0 18
-3 18 52 -1 44 -15 47 -14 81 9 19 13 56 30 81 37 25 7 46 17 46 22 0 10 -113
135 -164 182 -17 16 -24 25 -16 22 10 -5 9 -2 -2 7 -10 8 -15 17 -11 20 3 4 1
7 -7 7 -10 0 -10 4 1 17 12 14 12 16 0 8 -11 -6 -13 -4 -8 9 4 10 3 15 -3 11
-6 -3 -10 1 -10 9 0 9 -5 16 -11 16 -11 0 -6 -50 8 -86 3 -9 -2 -14 -16 -14
-12 0 -21 4 -21 10 0 5 6 7 14 4 12 -5 13 0 6 28 -18 71 -21 93 -11 78 6 -8
14 -11 18 -6 4 5 2 11 -5 13 -6 3 -9 10 -6 16 4 7 0 5 -9 -3 -13 -12 -14 -23
-6 -59 5 -24 8 -46 5 -48 -2 -3 -30 16 -61 41 -52 43 -124 86 -142 86 -4 0 15
-13 44 -29 52 -29 111 -71 99 -71 -3 0 -23 12 -44 28 -21 15 -61 38 -90 51
-28 13 -49 28 -46 32 3 5 -3 6 -12 2 -11 -4 -15 -3 -11 4 5 7 -1 9 -15 5 -16
-4 -19 -2 -13 8 5 8 4 11 -3 6 -6 -3 -39 1 -74 9 -69 16 -243 20 -252 6z"/>
<path d="M3545 4493 c-33 -20 -70 -37 -83 -38 -12 -1 -29 -10 -37 -21 -10 -13
-14 -15 -15 -5 0 8 -8 3 -20 -12 -11 -14 -29 -28 -39 -32 -33 -10 -32 -46 1
-145 18 -52 36 -97 40 -98 5 -2 6 -8 2 -13 -3 -5 0 -9 6 -9 6 0 8 -4 5 -10 -3
-5 -1 -10 6 -10 8 0 7 -5 -2 -17 -12 -14 -12 -16 0 -8 11 6 13 4 8 -9 -5 -11
-3 -15 5 -10 8 5 9 2 5 -10 -5 -11 -3 -15 5 -10 8 5 9 2 5 -10 -4 -9 -3 -15 2
-12 10 6 29 -39 56 -129 21 -71 24 -280 6 -389 -10 -56 -9 -71 1 -77 11 -7 11
-9 0 -9 -7 0 -10 -4 -7 -10 3 -5 2 -10 -4 -10 -6 0 -8 -12 -4 -30 3 -19 1 -30
-5 -30 -6 0 -9 -7 -5 -15 3 -9 -1 -21 -9 -28 -9 -7 -21 -33 -28 -59 -7 -26
-17 -45 -22 -42 -6 4 -5 -4 2 -16 11 -20 10 -22 -4 -17 -14 6 -15 3 -6 -13 8
-14 8 -20 0 -20 -6 0 -8 -5 -5 -10 4 -6 11 -8 16 -5 5 3 6 -1 2 -10 -4 -13 -8
-14 -14 -4 -4 8 -12 10 -16 5 -4 -5 -2 -11 5 -13 6 -3 10 -10 7 -16 -3 -7 4 0
15 14 25 30 83 129 75 129 -2 0 -18 -24 -35 -52 -16 -29 -30 -49 -30 -44 0 10
50 98 60 106 8 7 68 159 72 185 2 11 10 20 17 20 18 0 55 133 76 271 18 119
20 364 4 484 -6 47 -15 146 -19 220 -7 131 -7 132 -8 40 -1 -52 5 -151 13
-220 19 -161 19 -395 0 -524 -14 -93 -62 -288 -64 -259 -1 7 8 45 19 85 50
185 64 454 35 698 -8 69 -15 167 -15 218 0 50 -3 92 -7 92 -5 0 -35 -17 -68
-37z"/>
<path d="M4532 3937 c-6 -7 -11 -40 -11 -72 0 -62 -25 -172 -42 -190 -5 -5 -3
10 6 34 8 24 15 53 14 65 0 11 -7 -3 -15 -33 -12 -45 -29 -76 -70 -130 -2 -2
-22 13 -44 33 -22 20 -43 36 -47 36 -4 0 -3 -3 3 -8 5 -4 26 -23 47 -42 l37
-34 31 34 30 35 -26 -37 c-15 -21 -30 -38 -32 -38 -3 0 -22 15 -42 33 -20 17
-47 40 -61 50 -14 10 -19 15 -11 11 9 -5 12 -3 7 4 -4 6 -13 9 -20 6 -8 -3
-17 0 -22 7 -5 8 -3 10 6 4 9 -5 11 -4 6 4 -4 6 -11 9 -16 6 -11 -7 -92 64
-85 75 2 4 -5 16 -18 26 l-22 19 20 -25 20 -25 -23 19 c-12 11 -21 25 -18 32
3 8 -1 11 -10 7 -9 -3 -14 1 -14 12 0 10 5 13 12 9 7 -4 8 -3 4 4 -9 15 -36 4
-36 -15 0 -40 76 -188 124 -240 27 -31 52 -50 54 -44 2 6 11 11 19 11 9 0 13
-6 10 -15 -4 -8 -1 -17 5 -21 7 -4 8 -3 4 4 -4 7 -4 12 1 12 4 0 17 -24 29
-52 17 -44 24 -53 43 -51 15 2 20 -1 16 -10 -4 -6 12 8 34 33 41 45 101 147
101 170 0 7 -16 -18 -35 -56 -19 -38 -49 -85 -66 -104 -30 -34 -30 -33 4 15
48 69 79 134 73 151 -3 8 -1 14 4 14 5 0 7 7 4 15 -4 8 -1 15 6 15 7 0 10 7 6
15 -3 8 0 15 6 15 7 0 9 16 6 45 -3 25 -1 45 3 45 5 0 8 29 7 65 -2 36 -4 65
-4 65 -1 0 -6 -6 -12 -13z"/>
<path d="M1744 3894 c3 -6 -4 -20 -15 -30 -23 -21 -18 -66 11 -99 10 -11 20
-27 22 -35 4 -21 77 -130 86 -130 13 0 32 23 32 38 0 29 -81 199 -111 233 -17
19 -28 29 -25 23z"/>
<path d="M6557 3697 c3 -5 -19 -7 -50 -5 -30 1 -54 0 -52 -3 2 -3 -40 -13 -93
-23 -104 -20 -273 -71 -343 -106 -25 -12 -36 -14 -25 -5 28 22 158 70 257 96
91 23 118 35 54 24 -209 -38 -547 -219 -666 -356 -29 -34 -56 -56 -62 -53 -7
4 -5 0 3 -9 14 -14 24 -13 110 8 52 13 86 24 75 24 -11 0 -54 -8 -95 -19 -41
-10 -76 -17 -78 -15 -4 3 20 11 113 34 36 8 105 20 220 36 57 8 314 8 380 0
30 -4 52 -11 49 -16 -3 -5 2 -6 10 -3 20 8 116 -15 116 -27 0 -6 -9 -5 -21 1
-11 6 -25 9 -32 6 -7 -2 -5 -5 5 -5 9 -1 20 -6 24 -13 5 -8 0 -9 -14 -6 -14 4
-20 2 -15 -5 4 -7 0 -8 -11 -4 -9 4 -15 3 -11 -2 3 -5 -8 -19 -24 -30 -41 -29
-52 -26 -16 5 l30 26 -32 -22 c-18 -11 -32 -25 -30 -30 1 -4 -45 -50 -102
-102 -144 -129 -181 -160 -181 -155 0 3 218 201 258 235 15 12 15 12 1 5 -26
-13 -253 -220 -278 -253 -12 -17 -26 -28 -32 -25 -5 4 -9 2 -9 -3 0 -24 -261
-173 -300 -171 -8 0 1 6 20 13 49 18 151 71 175 91 11 9 -6 1 -39 -16 -32 -18
-83 -42 -114 -55 l-56 -23 -2 -56 c-5 -135 -30 -139 -59 -11 -5 23 -10 27 -28
22 -73 -21 -148 -29 -274 -30 -79 -1 -143 -4 -143 -7 0 -3 25 -11 56 -18 30
-7 53 -15 51 -17 -3 -3 -60 -14 -128 -25 -147 -24 -258 -48 -279 -61 -12 -7
-10 -8 5 -4 66 18 204 46 225 45 14 0 -26 -11 -87 -24 -62 -13 -127 -28 -143
-34 -22 -7 -29 -7 -24 0 4 6 -5 3 -20 -6 -14 -10 -26 -14 -26 -10 0 4 -7 2
-15 -5 -8 -7 -15 -9 -15 -5 0 4 -6 2 -13 -4 -8 -6 -17 -8 -20 -4 -4 3 -7 -1
-7 -10 0 -18 25 -17 122 3 27 6 36 5 31 -4 -3 -6 -1 -6 8 2 15 14 284 18 275
3 -3 -4 5 -6 18 -4 49 10 280 -73 341 -121 11 -9 -21 4 -71 28 -88 44 -219 87
-259 85 -11 0 15 -9 58 -20 93 -22 195 -66 286 -121 87 -53 91 -55 56 -23 -23
20 -24 23 -5 11 36 -23 40 -21 40 29 0 50 16 61 26 18 3 -16 10 -42 15 -59 6
-18 8 -37 7 -44 -3 -13 33 -37 147 -98 33 -18 51 -26 40 -17 -11 9 -57 36
-102 61 -46 25 -83 47 -83 50 0 3 37 -16 83 -41 45 -25 111 -60 147 -78 36
-18 67 -35 68 -40 2 -4 8 -5 13 -1 5 3 9 0 9 -6 0 -6 5 -8 10 -5 6 3 10 1 10
-6 0 -7 3 -10 6 -7 3 4 15 -3 26 -14 11 -11 26 -17 34 -14 7 3 13 0 11 -6 -1
-6 48 -33 108 -58 225 -96 346 -125 498 -119 48 2 87 4 87 3 0 -14 -253 -154
-278 -154 -5 0 -17 -9 -27 -20 -10 -11 -22 -17 -26 -14 -5 3 -9 0 -9 -6 0 -6
-4 -9 -9 -5 -5 3 -12 1 -16 -5 -4 -6 -11 -8 -16 -5 -5 4 -15 3 -21 -2 -7 -4
-19 -8 -27 -10 -7 -1 -35 -7 -62 -13 -27 -7 -56 -9 -65 -6 -9 4 -13 2 -8 -5 5
-8 -4 -10 -29 -7 -20 2 -34 1 -32 -3 6 -9 -112 -19 -227 -19 -70 0 -107 5
-132 17 -19 9 -33 19 -31 23 2 3 -9 5 -26 4 -16 -1 -29 2 -29 8 0 5 -4 6 -10
3 -5 -3 -10 -1 -10 5 0 7 -6 10 -14 7 -7 -3 -19 0 -25 6 -10 9 -10 5 -2 -16 9
-22 8 -28 -1 -25 -7 3 -14 15 -16 27 -3 19 -8 21 -33 16 -21 -5 -29 -3 -29 7
0 9 -31 22 -90 38 -50 12 -89 25 -86 27 2 3 41 -5 86 -17 44 -13 83 -20 85
-18 6 5 -237 68 -256 67 -8 -1 6 -7 31 -15 36 -11 38 -13 11 -9 -18 3 -40 5
-47 5 -8 0 -14 6 -14 13 0 15 80 32 203 43 42 4 77 10 77 13 0 4 -21 15 -47
25 -86 33 -240 32 -561 -4 -156 -17 -286 -30 -288 -28 -11 12 -40 127 -30 122
6 -3 3 1 -6 9 -10 8 -15 17 -11 20 3 4 0 7 -7 7 -7 0 -10 3 -7 7 4 3 2 12 -4
20 -6 7 -9 13 -6 13 3 0 -1 23 -9 51 -9 28 -13 58 -10 66 4 9 2 11 -6 7 -7 -5
-9 0 -6 14 4 14 2 20 -4 16 -7 -5 -9 2 -6 19 3 15 2 25 -1 22 -13 -7 -102 387
-100 443 0 15 9 -22 20 -83 10 -60 24 -121 29 -135 8 -21 9 -20 3 10 -3 19
-14 80 -23 135 -14 85 -19 100 -36 100 -16 0 -19 9 -22 60 -2 33 -3 84 -3 113
1 40 -2 52 -14 52 -8 0 -17 -11 -21 -25 -4 -18 -13 -25 -30 -25 -19 0 -26 9
-40 55 -10 30 -22 55 -27 55 -13 0 3 -123 17 -132 6 -4 7 -8 1 -8 -5 0 -5 -4
2 -8 8 -5 10 -21 6 -45 -5 -35 -8 -38 -36 -35 -25 2 -32 10 -43 41 -10 28 -10
36 -1 31 7 -4 -18 22 -54 59 -42 42 -74 67 -88 67 -12 0 -20 4 -17 8 2 4 -19
5 -49 2 -30 -3 -51 -2 -49 2 3 4 24 9 47 10 l42 1 -38 4 c-27 3 -45 -1 -57
-12 -10 -9 -24 -18 -32 -19 -7 -2 -29 -10 -48 -18 -19 -9 -49 -19 -67 -23 -17
-3 -38 -13 -45 -22 -11 -14 -10 -15 7 -10 55 15 102 17 153 6 109 -22 171 -71
193 -152 14 -50 6 -217 -11 -244 -11 -17 -11 -17 -5 2 13 40 17 200 6 241 -21
78 -83 128 -173 139 -43 5 -43 5 8 -8 70 -18 115 -46 138 -86 25 -43 33 -163
16 -246 -7 -33 -13 -68 -14 -78 -1 -10 -11 -25 -21 -35 -18 -16 -18 -15 0 8
l20 25 -22 -18 c-11 -10 -42 -55 -69 -100 -26 -45 -71 -115 -101 -154 -29 -40
-53 -76 -53 -80 0 -13 115 149 159 225 24 39 45 72 48 72 5 0 6 1 -42 -80 -21
-36 -83 -124 -137 -196 -54 -72 -98 -134 -98 -138 0 -3 4 -6 10 -6 13 0 99
-63 99 -73 1 -10 -59 30 -76 51 -7 9 -15 13 -19 10 -9 -9 94 -82 172 -121 68
-34 233 -91 241 -83 2 2 -29 14 -69 25 -74 22 -251 101 -244 108 2 2 36 -12
74 -31 71 -36 261 -98 340 -111 23 -4 40 -10 37 -15 -3 -4 11 -4 31 0 27 6 34
5 31 -4 -4 -10 4 -11 34 -6 24 4 39 3 39 -2 0 -6 16 -8 35 -6 19 2 36 0 37 -4
2 -4 38 -10 80 -12 43 -3 81 -7 86 -10 4 -2 34 -5 67 -5 33 -1 69 -3 80 -5 11
-3 34 -5 50 -6 l30 -2 -30 -7 c-24 -5 -11 -9 60 -19 50 -7 101 -14 115 -17 22
-5 22 -4 5 4 -38 18 4 11 87 -15 46 -14 122 -46 170 -71 91 -47 218 -136 218
-154 0 -6 -29 14 -63 44 -35 29 -104 74 -153 99 -86 44 -221 94 -229 86 -3 -2
28 -15 68 -27 103 -33 240 -106 311 -166 34 -29 67 -50 74 -47 14 5 92 -65 92
-82 0 -6 -21 10 -47 34 -26 25 -16 11 23 -30 81 -86 138 -166 129 -180 -3 -6
-1 -10 4 -10 6 0 11 5 11 11 0 13 -50 87 -93 137 -20 24 -23 30 -8 17 33 -29
111 -139 111 -159 0 -18 -13 -20 -39 -6 -10 5 -59 14 -110 20 -119 15 -335 -1
-571 -42 -374 -64 -536 -74 -719 -42 -115 20 -267 67 -264 82 2 7 -4 9 -14 5
-12 -5 -14 -3 -8 7 5 9 4 11 -4 6 -15 -10 -73 13 -65 25 3 5 -3 6 -12 2 -12
-4 -15 -3 -10 5 5 8 1 10 -10 5 -12 -4 -15 -3 -10 5 5 8 1 10 -10 5 -11 -4
-15 -3 -11 4 5 7 0 9 -13 6 -12 -3 -20 0 -20 6 0 7 5 9 12 5 7 -4 8 -3 4 4 -4
6 -14 8 -23 5 -10 -4 -14 -2 -10 4 5 7 0 9 -13 6 -12 -3 -20 0 -20 6 0 7 -5 9
-10 6 -6 -3 -13 1 -16 9 -3 9 -10 14 -14 11 -4 -3 -25 12 -47 33 -22 20 -31
31 -21 23 10 -8 18 -12 18 -9 0 3 -37 36 -82 74 -45 38 -115 110 -156 159 -80
97 -89 107 -78 88 4 -7 -5 -6 -24 3 -16 9 -42 19 -58 23 -27 8 -29 7 -29 -22
0 -32 -36 -72 -55 -61 -5 3 -3 -8 6 -24 9 -17 21 -34 27 -38 6 -3 3 5 -6 20
-10 15 -16 28 -14 31 3 2 15 -15 28 -37 13 -23 17 -37 9 -33 -7 3 -4 -1 6 -9
11 -9 16 -16 11 -16 -5 0 0 -7 11 -16 10 -8 12 -13 4 -9 -8 4 -4 -3 10 -14 14
-11 21 -21 15 -21 -7 0 -7 -3 0 -8 14 -10 85 -99 85 -107 0 -3 -6 -3 -12 1
-22 12 123 -138 202 -209 70 -64 120 -101 107 -79 -4 5 0 18 8 28 8 10 15 14
15 7 0 -6 5 -24 12 -40 6 -15 11 -31 10 -34 -1 -4 9 -15 21 -25 l22 -19 -19
23 c-23 27 -10 29 22 3 23 -20 31 -38 10 -25 -6 4 -8 3 -5 -4 4 -5 16 -8 27
-5 11 3 20 0 20 -6 0 -6 7 -11 15 -11 8 0 15 -5 15 -11 0 -5 4 -8 9 -4 6 3 14
-3 20 -12 6 -10 11 -14 11 -9 0 6 7 1 16 -10 8 -10 12 -12 9 -4 -4 8 3 3 16
-12 25 -28 148 -101 135 -80 -4 7 -2 12 3 12 11 0 -72 120 -93 132 -8 6 -8 8
1 8 7 0 12 3 12 8 -5 29 19 11 148 -116 19 -19 40 -31 48 -28 8 3 17 0 21 -6
5 -7 2 -8 -6 -3 -9 6 -11 4 -5 -5 17 -27 331 -152 378 -149 6 0 -40 17 -103
38 -112 37 -250 95 -250 105 0 3 33 -10 73 -28 119 -54 310 -112 457 -138 46
-8 144 -13 255 -12 152 1 218 7 425 38 472 71 655 82 836 51 145 -26 374 -111
359 -135 -3 -5 0 -12 6 -16 8 -4 9 -3 5 4 -4 7 -3 12 2 12 14 0 119 -87 125
-102 2 -7 7 -10 11 -7 7 7 -41 149 -80 236 -13 30 -19 51 -14 48 8 -5 75 -172
100 -248 7 -21 14 -36 16 -34 15 14 -119 332 -136 322 -6 -4 -7 1 -3 11 5 13
3 15 -7 9 -8 -5 -11 -4 -6 3 7 12 -14 63 -24 57 -4 -2 -19 19 -35 48 -15 28
-35 57 -43 63 -9 6 -13 18 -9 27 3 9 1 19 -5 23 -7 5 -8 2 -3 -6 6 -9 4 -11
-4 -6 -7 5 -10 14 -7 21 3 8 -3 19 -12 27 -16 12 -16 11 -2 -7 14 -19 14 -19
-3 -6 -10 8 -16 20 -13 26 7 19 -174 219 -187 206 -9 -9 -71 39 -176 138 -54
51 -7 15 80 -62 43 -37 80 -67 84 -67 4 0 -40 40 -97 90 -95 83 -130 107 -112
78 4 -7 3 -8 -5 -4 -6 4 -9 11 -6 16 5 8 -134 100 -151 100 -5 0 20 -18 55
-39 35 -22 68 -45 75 -51 6 -6 -33 15 -86 47 -54 32 -98 63 -98 68 0 6 78 10
213 11 195 1 316 12 437 41 14 3 22 3 18 -2 -19 -20 -235 -46 -436 -52 -117
-3 -210 -9 -205 -12 14 -12 394 6 496 23 170 28 342 78 351 102 3 8 10 13 15
9 5 -3 12 -1 16 5 4 6 11 8 16 5 5 -4 9 -1 9 5 0 6 4 9 9 5 5 -3 12 -1 16 5 4
6 11 8 16 5 5 -4 9 -2 9 3 0 6 13 9 29 8 17 -1 27 2 24 8 -4 5 1 7 11 3 11 -4
15 -3 11 4 -4 5 7 15 24 22 46 17 38 27 -24 27 -70 0 -71 17 -3 50 92 45 230
142 318 223 l85 80 -85 -84 c-47 -47 -127 -112 -180 -146 -123 -80 -154 -105
-65 -52 107 63 192 130 275 215 41 42 69 74 63 70 -7 -4 -13 -3 -13 2 0 10 24
33 31 29 3 -1 0 4 -6 10 -8 10 -26 7 -80 -12 -39 -13 -62 -25 -53 -25 10 0 41
9 69 20 28 12 53 19 56 17 8 -9 -114 -47 -182 -58 -167 -25 -403 30 -815 191
-124 49 -242 92 -262 95 -21 4 -38 11 -38 16 0 5 6 6 13 3 7 -2 32 2 56 11 24
8 63 15 86 15 28 0 47 6 56 17 10 11 10 14 2 9 -7 -4 -13 -3 -13 3 0 9 -47 28
-88 36 -9 2 -18 4 -19 5 -5 4 -23 7 -44 9 -11 0 -17 5 -14 11 3 5 0 8 -7 5 -7
-3 -35 2 -63 10 -48 14 -48 15 -10 10 l40 -4 -32 12 c-17 7 -34 15 -38 18 -9
9 55 30 68 22 6 -4 7 -1 2 7 -6 10 -4 12 9 7 11 -5 15 -3 10 5 -5 8 -2 9 10 5
11 -5 15 -3 10 5 -5 8 -2 9 10 5 9 -4 15 -3 12 2 -6 9 28 32 114 79 183 99
250 133 250 129 0 -5 -114 -68 -245 -137 -45 -23 -105 -61 -105 -66 0 -3 14 3
31 13 17 10 43 25 57 33 15 9 84 46 154 83 70 38 131 73 134 79 5 7 2 8 -6 3
-9 -5 -11 -4 -6 4 4 6 11 9 16 6 11 -7 80 26 75 36 -3 4 15 15 40 25 25 9 45
20 45 24 0 5 13 7 29 6 17 -1 27 2 24 8 -4 5 1 7 11 3 9 -4 15 -3 12 2 -8 12
50 35 65 25 7 -4 10 -3 5 4 -8 13 29 26 45 16 7 -4 9 -3 5 4 -8 13 29 26 45
16 7 -4 9 -3 5 4 -8 13 64 41 189 73 120 31 341 34 423 6 28 -10 50 -23 47
-28 -4 -5 2 -6 11 -2 10 3 15 2 12 -3 -4 -5 5 -10 18 -10 13 -1 24 0 24 3 0
14 -78 108 -123 149 -29 26 -38 38 -22 26 35 -24 90 -81 129 -134 28 -38 27
-64 -3 -53 -13 5 -14 4 -3 -6 10 -11 15 -10 28 3 16 15 14 20 -19 65 -43 58
-186 194 -163 156 9 -15 -10 -18 -19 -3 -4 6 -25 23 -48 37 -23 14 -52 37 -65
50 -12 14 -29 22 -37 19 -8 -3 -17 0 -21 6 -5 7 -2 8 6 3 9 -5 11 -4 6 4 -12
19 -122 70 -229 106 -107 36 -279 61 -307 44 -10 -5 14 -9 65 -10 44 -1 94 -5
110 -9 17 -3 -19 -5 -80 -2 -60 3 -112 7 -115 9 -11 10 36 32 113 53 49 14
125 25 190 28 59 3 107 8 107 12 0 8 -180 47 -257 57 -29 3 -51 8 -49 12 2 3
-23 4 -56 3 -33 -2 -58 0 -55 5 3 4 -55 8 -128 8 -73 0 -131 -4 -128 -8z"/>
<path d="M1333 3413 c-29 -15 -44 -33 -55 -70 -4 -17 0 -26 19 -38 14 -9 22
-19 20 -22 -3 -3 10 -18 29 -35 19 -17 34 -35 34 -41 0 -6 -17 5 -37 23 -21
19 -13 9 17 -23 30 -32 64 -63 75 -69 11 -6 4 4 -15 20 -19 17 -32 31 -27 32
4 0 16 -9 27 -20 21 -21 50 -27 50 -10 0 6 -7 24 -15 40 -9 17 -13 30 -10 30
2 0 13 -17 24 -37 11 -21 20 -34 21 -30 1 20 -42 87 -52 81 -6 -4 -8 -3 -4 4
3 6 -4 48 -18 93 -25 89 -35 97 -83 72z"/>
<path d="M1260 3282 c0 -31 -27 -121 -41 -136 -17 -19 -9 -29 10 -12 11 10 28
16 38 14 24 -4 30 -71 9 -103 -23 -35 -20 -68 9 -95 32 -30 31 -75 0 -76 -36
-1 -73 -14 -78 -27 -3 -7 -1 -37 5 -67 5 -29 7 -61 5 -71 -3 -11 13 -34 47
-66 l51 -48 -50 55 -50 55 57 -54 c31 -30 55 -58 52 -62 -2 -4 1 -11 7 -15 8
-4 9 -3 5 4 -14 23 9 11 46 -22 20 -19 39 -32 42 -29 2 3 12 -7 22 -22 17 -26
217 -165 238 -165 6 0 -17 17 -51 37 -34 20 -61 39 -59 41 2 2 27 -11 55 -29
29 -17 54 -29 57 -26 9 8 -85 68 -104 66 -32 -3 -41 1 -36 15 3 8 13 15 22 14
37 0 85 12 108 27 19 12 29 13 45 5 11 -7 27 -9 34 -6 16 6 25 -14 25 -57 1
-46 19 -72 80 -117 76 -54 92 -69 85 -81 -4 -5 9 -16 27 -23 43 -19 199 -58
205 -53 2 3 -36 14 -84 27 -48 12 -101 28 -118 36 -16 8 -21 12 -10 8 69 -21
291 -74 312 -74 13 0 22 -4 19 -8 -3 -5 18 -5 45 -2 38 5 49 4 45 -6 -3 -8 0
-11 9 -7 15 5 27 42 41 116 l6 37 -38 1 c-22 0 -59 4 -84 9 -38 7 -32 8 35 5
44 -1 67 -1 50 2 -16 2 -54 8 -83 12 -29 4 -50 6 -48 3 12 -11 -17 -43 -56
-63 -38 -19 -40 -20 -33 -2 19 44 17 60 -6 66 -13 4 -26 3 -29 -2 -10 -16 -49
-31 -64 -25 -19 7 -20 16 -4 32 8 8 4 14 -18 22 -65 24 -103 43 -98 51 3 5 -3
6 -12 2 -12 -4 -15 -3 -10 5 5 8 1 10 -10 5 -12 -4 -15 -3 -10 5 5 8 1 10 -10
5 -11 -4 -15 -3 -11 4 5 7 0 9 -13 6 -12 -3 -20 0 -20 6 0 7 6 9 13 5 6 -4 8
-3 4 2 -4 4 -18 9 -29 9 -12 0 -23 7 -26 15 -5 13 -3 13 14 0 18 -14 18 -14 5
3 -10 12 -17 14 -26 7 -9 -7 -16 -5 -26 6 -8 10 -13 19 -11 21 1 1 0 3 -3 3
-2 0 -22 17 -42 38 l-38 38 30 -36 c20 -24 13 -19 -22 14 -36 34 -49 53 -43
61 7 8 -1 21 -23 41 l-32 29 29 -32 c34 -38 21 -45 -14 -9 -12 14 -20 32 -17
40 3 8 -2 20 -11 28 -15 12 -16 11 -3 -4 9 -12 10 -18 2 -18 -6 0 -12 6 -13
13 0 6 -2 17 -2 23 -1 5 -31 55 -67 110 -37 54 -90 145 -118 202 -28 57 -56
100 -60 97 -5 -3 -7 5 -4 17 3 17 2 19 -5 10 -7 -11 -10 -9 -15 7 -3 14 -1 19
6 15 7 -3 4 1 -6 9 -10 9 -20 24 -22 34 -2 10 -4 19 -5 21 -2 1 -3 6 -4 11 0
5 -4 12 -8 16 -4 4 -4 13 -1 21 3 8 0 14 -6 14 -6 0 -11 -13 -11 -28z"/>
<path d="M1058 3214 c-47 -25 -81 -124 -44 -124 27 0 27 -20 2 -43 -26 -24
-23 -42 8 -48 11 -2 27 -17 35 -33 9 -16 20 -28 24 -27 4 0 12 1 17 1 21 0 9
30 -15 36 -28 7 -31 16 -11 34 8 6 12 18 9 26 -3 8 2 23 12 34 11 12 14 26 10
39 -4 12 0 30 9 43 21 29 20 48 -1 64 -22 16 -22 16 -55 -2z"/>
<path d="M2260 2665 c-10 -13 -11 -18 -1 -28 10 -9 11 -8 6 4 -14 38 19 26 90
-32 41 -34 75 -64 75 -66 0 -6 -117 87 -131 103 -18 22 -28 16 -25 -13 2 -18
30 -52 92 -112 50 -47 106 -106 125 -130 20 -25 36 -38 36 -30 0 9 10 29 23
46 12 17 20 36 16 41 -3 6 -30 24 -60 41 -30 16 -58 36 -62 43 -5 9 -2 8 12
-2 10 -8 15 -9 9 -3 -14 15 -184 153 -189 153 -2 0 -9 -7 -16 -15z"/>
<path d="M2666 2402 c-16 -26 -26 -124 -21 -194 6 -70 9 -76 31 -81 13 -2 21
0 17 6 -3 5 12 8 40 6 25 -2 43 -1 40 4 -2 4 7 7 21 7 15 0 74 11 133 25 58
14 108 23 110 21 2 -2 -31 -12 -74 -22 -43 -10 -71 -20 -63 -21 8 -2 44 5 80
14 l64 18 4 41 3 40 -75 18 c-77 18 -186 57 -266 96 -66 31 -19 17 90 -28 92
-38 236 -79 245 -70 3 2 -30 13 -73 23 -42 10 -120 35 -172 57 -122 50 -127
52 -134 40z"/>
<path d="M3250 2332 c0 -34 -3 -42 -17 -40 -22 4 -31 -31 -42 -168 -6 -79 -14
-120 -27 -140 -17 -26 -17 -27 -1 -15 22 18 34 66 41 176 3 50 10 104 16 120
9 28 10 28 4 -8 -3 -21 -9 -88 -14 -148 -6 -70 -15 -117 -24 -131 -19 -27 -20
-50 -3 -66 6 -7 17 -39 24 -70 l12 -57 -6 55 c-3 30 -9 63 -15 73 -5 10 -5 17
1 17 10 0 16 -22 26 -92 7 -46 20 -59 41 -38 17 17 49 -1 77 -44 41 -65 87
-101 57 -45 -6 10 -8 19 -6 19 3 0 12 -12 20 -27 8 -16 15 -22 16 -15 0 7 -11
24 -24 37 -13 13 -21 26 -18 29 3 3 0 6 -7 6 -7 0 -9 5 -6 10 3 6 2 10 -4 10
-6 0 -8 7 -5 15 4 8 1 15 -6 15 -6 0 -8 5 -5 10 3 6 1 10 -5 10 -8 0 -8 6 0
20 9 16 8 19 -6 13 -14 -5 -15 -3 -5 15 10 18 9 21 -5 15 -14 -5 -15 -3 -4 17
7 12 8 20 2 16 -21 -13 -53 179 -53 318 0 61 -5 96 -15 110 -13 19 -14 18 -14
-22z"/>
<path d="M1673 2190 c-1 -9 -22 -46 -47 -82 -38 -54 -43 -67 -30 -72 9 -3 21
-6 27 -5 7 0 3 4 -7 8 -15 6 -3 11 45 20 35 7 73 15 84 18 11 2 37 4 58 4 20
-1 37 3 37 7 0 5 14 7 30 4 17 -2 30 0 30 4 0 5 23 8 50 7 35 -2 50 1 50 10 0
15 -105 42 -240 63 l-85 13 70 -5 c96 -7 247 -43 263 -62 6 -9 12 -11 12 -5 0
6 -6 15 -12 20 -19 14 -137 42 -243 57 -83 11 -91 11 -92 -4z"/>
<path d="M1355 2183 c-11 -2 -31 -6 -43 -9 -15 -3 -22 -10 -19 -18 3 -8 1 -18
-5 -24 -6 -6 -11 -29 -11 -51 0 -23 -4 -41 -8 -41 -5 0 -9 -8 -9 -18 0 -10
-12 -29 -27 -44 -53 -49 -56 -56 -50 -119 3 -33 11 -66 17 -74 7 -8 10 -26 6
-39 -6 -23 -4 -23 72 15 112 57 185 73 327 74 130 0 180 -8 168 -28 -4 -8 -1
-7 10 2 25 20 21 28 -25 57 -24 15 -74 54 -113 87 -39 34 -55 44 -36 24 19
-20 30 -37 24 -37 -6 0 -27 18 -46 40 l-35 41 -45 -51 c-44 -49 -77 -64 -77
-35 0 8 -4 15 -9 15 -5 0 -11 7 -15 15 -4 10 1 14 17 12 23 -2 26 9 13 50 -5
15 -1 28 11 40 10 10 17 25 15 33 -2 12 13 19 57 29 37 8 68 22 82 37 l22 24
-124 -1 c-68 -1 -133 -3 -144 -6z"/>
<path d="M875 2010 c-76 -48 -77 -47 -9 8 16 13 7 8 -21 -11 -40 -27 -49 -38
-47 -58 2 -13 5 -25 7 -27 2 -2 33 6 70 17 37 12 79 21 94 20 17 -1 11 -4 -18
-10 -56 -11 -144 -40 -138 -45 2 -3 17 0 33 7 16 6 56 16 89 23 l60 13 -3 44
c-5 86 -9 86 -117 19z"/>
<path d="M2951 1917 c4 -4 -39 -52 -94 -105 -55 -53 -118 -115 -139 -136 -21
-22 -38 -36 -38 -32 0 4 -8 0 -17 -10 -29 -29 -232 -120 -323 -145 -73 -20
-110 -24 -256 -25 l-171 -2 -66 -36 c-81 -45 -116 -56 -186 -56 -74 0 -131 34
-161 95 -12 25 -20 55 -17 65 4 15 -1 21 -16 25 -24 5 -218 25 -248 25 -34 0
-42 -35 -34 -156 l7 -114 200 0 c148 0 197 -3 192 -12 -4 -6 -3 -9 2 -5 5 3
142 7 304 8 161 2 283 6 269 10 -22 7 -22 7 -2 8 12 1 61 15 110 32 48 17 96
32 105 32 9 1 14 6 11 11 -4 5 1 7 11 3 11 -5 15 -3 10 5 -5 8 -2 9 10 5 11
-5 15 -3 10 5 -5 8 -2 9 10 5 11 -5 15 -3 10 5 -5 7 -2 9 8 5 15 -5 127 57
187 104 42 33 16 20 -60 -30 -67 -43 -156 -93 -106 -59 99 68 211 138 215 134
7 -8 -19 -126 -28 -126 -5 0 -2 21 6 47 15 49 18 81 7 70 -3 -4 -8 -21 -10
-39 -2 -17 -10 -45 -18 -62 -13 -26 -13 -32 -1 -44 12 -13 24 -9 84 24 89 47
205 132 197 143 -8 13 64 73 78 65 7 -4 9 -4 5 1 -4 4 18 35 48 68 61 65 58
53 40 157 -2 12 -15 14 -55 12 -40 -3 -58 0 -74 14 -12 11 -19 15 -16 11z"/>
<path d="M1040 1477 c-163 -86 -170 -92 -170 -152 0 -18 7 -24 29 -27 17 -2
28 -1 25 4 -3 4 45 8 106 8 106 0 110 1 100 19 -5 11 -10 44 -10 74 0 37 -6
62 -17 76 l-18 22 -45 -24z"/>
<path d="M5900 635 c-58 -7 -215 -30 -350 -51 -212 -32 -270 -37 -430 -37
-175 -1 -222 3 -390 38 -24 5 -24 5 -2 -4 64 -29 211 -45 392 -44 160 0 219 5
430 37 405 61 478 68 660 63 186 -5 296 -28 441 -90 43 -19 77 -31 74 -27 -9
15 -158 72 -254 97 -83 22 -122 26 -281 29 -119 2 -223 -2 -290 -11z"/>
</g>
</svg>
